# xmcd
#
# Track frame offsets:
# 150
# 74194
# 121918
# 133035
# 158598
# 164440
# 164837
# 195444
# 227629
# 258520
# 266846
#
# Disc length: 4431 seconds
#
# Revision: 0
# Processed by: cddbd v1.5.1PL2 Copyright (c) Steve Scherf et al.
# Submitted via: Audion 3.0.2 (http://www.panic.com/audion/)
#
DISCID=a2114d0b
DTITLE=direct - fixafat
DYEAR=1900
DGENRE=
TTITLE0=j
TTITLE1=j
TTITLE2=j
TTITLE3=j
TTITLE4=j
TTITLE5=j
TTITLE6=j
TTITLE7=j
TTITLE8=j
TTITLE9=j
TTITLE10=j
EXTD=
EXTT0=
EXTT1=
EXTT2=
EXTT3=
EXTT4=
EXTT5=
EXTT6=
EXTT7=
EXTT8=
EXTT9=
EXTT10=
PLAYORDER=
